<svg xmlns="http://www.w3.org/2000/svg" viewBox="0 0 12.77 17.14"><g id="Layer_4" data-name="Layer 4"><path d="M6.3,17.14a.77.77,0,0,1-.44-.35L1,9.47A5.62,5.62,0,0,1,.07,7.14,6,6,0,0,1,2,1.74,6,6,0,0,1,5.34.09a6.33,6.33,0,0,1,5.19,1.4,5.88,5.88,0,0,1,2.14,3.62,5.86,5.86,0,0,1-.91,4.42C10.14,12,8.51,14.39,6.89,16.82a.67.67,0,0,1-.42.32Zm.09-1.5.06-.08,4.44-6.64a4.79,4.79,0,0,0,.78-3.29A4.76,4.76,0,0,0,9.83,2.3a5.32,5.32,0,0,0-5.45-.85A5.07,5.07,0,0,0,1.1,6.82a4.7,4.7,0,0,0,.74,2l4.49,6.69Z"/><path d="M6.39,3.22a3,3,0,0,1,2.84,2A2.91,2.91,0,0,1,8.06,8.62a3.07,3.07,0,0,1-3.89-.45A2.89,2.89,0,0,1,4.38,4,3.08,3.08,0,0,1,6.39,3.22Zm.1,1.08a2.07,2.07,0,0,0-1,.18,1.83,1.83,0,0,0-.61,2.95,2,2,0,0,0,2.78.12A1.8,1.8,0,0,0,8,5.12,1.9,1.9,0,0,0,6.49,4.3Z"/></g></svg>