<svg xmlns="http://www.w3.org/2000/svg" viewBox="0 0 36.56 36.55"><defs><style>.cls-1{fill:#1f2126;}</style></defs><g id="Layer_4" data-name="Layer 4"><path class="cls-1" d="M18.28,8.9a9.38,9.38,0,1,0,9.37,9.37A9.36,9.36,0,0,0,18.28,8.9Zm0,15.47a6.1,6.1,0,1,1,6.09-6.1,6.11,6.11,0,0,1-6.09,6.1ZM30.22,8.52A2.19,2.19,0,1,1,28,6.33,2.18,2.18,0,0,1,30.22,8.52Zm6.21,2.22c-.14-2.93-.81-5.52-3-7.66S28.75.28,25.82.13,13.76,0,10.74.13,5.23.94,3.08,3.07.28,7.8.13,10.73,0,22.79.13,25.81s.81,5.52,3,7.66,4.73,2.8,7.66,3,12.06.17,15.08,0,5.52-.81,7.66-3,2.8-4.73,3-7.66.17-12,0-15.07Zm-3.9,18.31a6.17,6.17,0,0,1-3.47,3.47c-2.41,1-8.12.74-10.78.74s-8.37.21-10.77-.74A6.18,6.18,0,0,1,4,29.05c-1-2.41-.73-8.12-.73-10.78S3.09,9.9,4,7.5A6.15,6.15,0,0,1,7.51,4c2.41-1,8.11-.74,10.77-.74s8.38-.21,10.78.74A6.14,6.14,0,0,1,32.53,7.5c.95,2.41.73,8.12.73,10.77S33.48,26.65,32.53,29.05Z"/></g></svg>