<svg xmlns="http://www.w3.org/2000/svg" viewBox="0 0 16.59 12.44"><g id="Layer_4" data-name="Layer 4"><path d="M15,0H1.55A1.56,1.56,0,0,0,0,1.55v9.33a1.56,1.56,0,0,0,1.55,1.56H15a1.56,1.56,0,0,0,1.56-1.56V1.55A1.56,1.56,0,0,0,15,0Zm.41,2v.66c-.77.64-2,1.62-4.63,3.69-.57.46-1.72,1.57-2.52,1.55S6.35,6.79,5.77,6.33C3.15,4.26,1.92,3.28,1.15,2.64V2a.75.75,0,0,1,.75-.75H14.69A.76.76,0,0,1,15.44,2ZM1.15,10.48V4c.78.63,1.9,1.52,3.6,2.86.75.6,2.07,1.92,3.54,1.91s2.77-1.29,3.54-1.91L15.44,4v6.47a.73.73,0,0,1-.73.73H1.87A.73.73,0,0,1,1.15,10.48Z"/></g></svg>