<svg xmlns="http://www.w3.org/2000/svg" viewBox="0 0 41.76 33.91"><defs><style>.cls-1{fill:#1f2126;}</style></defs><g id="Layer_4" data-name="Layer 4"><path class="cls-1" d="M37.46,8.45c0,.37,0,.74,0,1.11,0,11.32-8.61,24.35-24.35,24.35A24.16,24.16,0,0,1,0,30.07a17.59,17.59,0,0,0,2.07.11,17.1,17.1,0,0,0,10.62-3.66,8.57,8.57,0,0,1-8-5.93,10.73,10.73,0,0,0,1.62.13,9.38,9.38,0,0,0,2.25-.29A8.56,8.56,0,0,1,1.7,12v-.11A8.48,8.48,0,0,0,5.56,13,8.59,8.59,0,0,1,2.91,1.56a24.33,24.33,0,0,0,17.65,9,9.88,9.88,0,0,1-.21-2A8.57,8.57,0,0,1,35.16,2.7,16.83,16.83,0,0,0,40.59.64a8.58,8.58,0,0,1-3.76,4.71A17.11,17.11,0,0,0,41.76,4a18.6,18.6,0,0,1-4.3,4.42Z"/></g></svg>